<?xml version="1.0" encoding="UTF-8"?>
<svg version="1.1" xmlns="http://www.w3.org/2000/svg" width="1359" height="363">
<path d="M0 0 C448.47 0 896.94 0 1359 0 C1359 119.79 1359 239.58 1359 363 C910.53 363 462.06 363 0 363 C0 243.21 0 123.42 0 0 Z " fill="#FAFAFA" transform="translate(0,0)"/>
<path d="M0 0 C8.61841472 7.14859102 16.35717925 14.96479225 23 24 C23.39106934 24.52722656 23.78213867 25.05445313 24.18505859 25.59765625 C39.46098961 46.45762066 48.39894063 70.52384866 52 96 C52.13148438 96.85078125 52.26296875 97.7015625 52.3984375 98.578125 C56.07290737 126.98078401 50.68583143 156.06099538 39 182 C38.48953125 183.14339844 37.9790625 184.28679687 37.453125 185.46484375 C21.47191812 219.29173165 -7.71166366 243.97218903 -42.44433594 257.11132812 C-64.70984751 264.8536344 -89.36200431 266.45916086 -112.625 262.75 C-113.31368164 262.64075195 -114.00236328 262.53150391 -114.71191406 262.41894531 C-119.02861058 261.621727 -123.10929119 260.33761931 -127.26708984 258.93457031 C-128.8798732 258.39186493 -128.8798732 258.39186493 -130.52523804 257.8381958 C-131.34190948 257.56159119 -132.15858093 257.28498657 -133 257 C-133.09363254 234.42466444 -133.16407171 211.84936112 -133.20724869 189.27387047 C-133.22783349 178.79058701 -133.25587571 168.30742453 -133.30175781 157.82421875 C-133.34175091 148.68214699 -133.36746245 139.5401629 -133.37635398 130.39800608 C-133.38154767 125.56172935 -133.39366883 120.72570331 -133.42292023 115.88950729 C-133.45028686 111.32749921 -133.45840254 106.76584253 -133.45243073 102.20376015 C-133.45352154 100.53901185 -133.46134793 98.87425048 -133.4768219 97.20957375 C-133.6271752 80.18416625 -130.44428052 64.59295235 -118.375 51.75 C-107.10676212 41.10777533 -94.82406698 36.44135605 -79.5 36.625 C-78.53191406 36.61339844 -77.56382812 36.60179688 -76.56640625 36.58984375 C-65.43743545 36.6346584 -56.36873179 39.49550902 -48 47 C-44.67720629 50.99678838 -42.03355417 54.85545508 -41 60 C-42.03898438 60.40089844 -43.07796875 60.80179687 -44.1484375 61.21484375 C-58.09128729 66.80437136 -67.64893602 73.88652448 -74 88 C-76.10097015 94.12282729 -77.84683925 100.50756573 -77 107 C-73.27933528 109.48044315 -70.13459526 109.44381173 -65.8125 109.625 C-65.06291016 109.66367188 -64.31332031 109.70234375 -63.54101562 109.7421875 C-61.69440801 109.83628216 -59.8472381 109.91922319 -58 110 C-57.85304687 110.76183594 -57.70609375 111.52367187 -57.5546875 112.30859375 C-55.58491502 121.37633948 -52.86775112 128.80258614 -44.8125 134 C-37.58536636 138.10535402 -29.10463203 137.8862949 -21 137 C-14.44971673 135.12618284 -9.65741649 131.80883795 -6 126 C-3.74150444 120.78395073 -2.01202316 115.59648809 -1 110 C0.19238281 109.96261719 1.38476562 109.92523438 2.61328125 109.88671875 C4.179719 109.82105968 5.74612384 109.75461232 7.3125 109.6875 C8.09818359 109.66494141 8.88386719 109.64238281 9.69335938 109.61914062 C10.45068359 109.58369141 11.20800781 109.54824219 11.98828125 109.51171875 C12.68477783 109.48553467 13.38127441 109.45935059 14.09887695 109.43237305 C16.53179434 108.87905384 17.46574536 107.93403147 19 106 C20.16957507 96.53375176 15.196563 85.52504573 9.6875 78.125 C3.82196455 71.23772612 -1.89852408 66.6346322 -10.2890625 63.140625 C-11.18367187 62.76421875 -12.07828125 62.3878125 -13 62 C-14.04285156 61.60167969 -15.08570313 61.20335938 -16.16015625 60.79296875 C-19.95724517 58.395632 -20.4382416 56.28998061 -21.8125 52.0625 C-26.97068162 37.67910894 -36.64387858 27.4148961 -50.3125 20.6875 C-68.14796147 13.10277884 -89.76941771 11.77733384 -108 19 C-127.99239984 27.44261415 -140.47545708 42.15875619 -149 62 C-153.41247212 74.71751782 -154.15481838 86.5523178 -154.20532227 99.87109375 C-154.21491308 101.47816716 -154.22492385 103.08523812 -154.23532104 104.69230652 C-154.26224582 109.03671974 -154.28332228 113.38114369 -154.30332303 117.72559357 C-154.32525967 122.27264843 -154.35261064 126.8196707 -154.37937927 131.36669922 C-154.42920269 139.96895338 -154.47417973 148.57122573 -154.51740164 157.17351532 C-154.56686272 166.97039208 -154.62174783 176.76723612 -154.67708123 186.56408119 C-154.79074228 206.70935695 -154.89761562 226.85466398 -155 247 C-156.77382827 246.04415502 -158.54626937 245.08573547 -160.31811523 244.1262207 C-161.30529037 243.59277542 -162.29246552 243.05933014 -163.30955505 242.50971985 C-166.10924687 240.93869707 -168.59608828 239.24209706 -171.0625 237.1875 C-171.87460938 236.51203125 -172.68671875 235.8365625 -173.5234375 235.140625 C-177.74494339 231.4917524 -181.9111816 227.79725579 -186 224 C-186.60457031 223.44957031 -187.20914063 222.89914062 -187.83203125 222.33203125 C-211.75248927 199.64400901 -227.68555018 162.81092705 -229.17700195 130.12036133 C-229.20304886 128.77434833 -229.22325806 127.42821242 -229.23828125 126.08203125 C-229.24812042 125.3510321 -229.25795959 124.62003296 -229.26809692 123.86688232 C-229.43884669 107.89172903 -229.43510261 92.48356871 -225 77 C-224.75330566 76.12891602 -224.50661133 75.25783203 -224.25244141 74.36035156 C-217.7322605 52.00201484 -207.20471098 30.89829783 -191 14 C-190.03397599 12.81874785 -189.0749471 11.63171921 -188.125 10.4375 C-141.54477451 -44.05498297 -53.0090456 -41.87363881 0 0 Z " fill="#FAFAFA" transform="translate(260,64)"/>
<path d="M0 0 C1.19737793 0.29801514 1.19737793 0.29801514 2.41894531 0.60205078 C30.11238466 7.7475362 54.25303645 21.30429839 75 41 C75.49612793 41.4635791 75.99225586 41.9271582 76.50341797 42.40478516 C100.50562564 64.94425441 115.92117062 94.24959312 124 126 C124.31759277 127.20342041 124.31759277 127.20342041 124.64160156 128.43115234 C127.88297309 141.18345791 128.3661852 153.79007937 128.375 166.875 C128.37799103 168.04420486 128.37799103 168.04420486 128.38104248 169.23703003 C128.37682872 183.78159339 127.30742063 197.95426591 123.25 212 C122.98687012 212.93150879 122.72374023 213.86301758 122.45263672 214.82275391 C109.89813442 258.33356325 82.59541435 296.40395615 42.66381836 318.6862793 C26.49684112 327.35111791 9.98485516 332.56417213 -8 336 C-9.28261719 336.2475 -10.56523437 336.495 -11.88671875 336.75 C-50.50098992 342.97671338 -92.21297799 332.56783266 -124.125 310.1484375 C-161.49721629 283.12728077 -186.80762458 244.11781892 -194.83666992 198.50024414 C-202.0581086 153.22296991 -193.70791423 105.58098811 -167.01171875 67.671875 C-161.47078262 60.04381762 -155.53632056 52.7995281 -149 46 C-148.55720703 45.53142578 -148.11441406 45.06285156 -147.65820312 44.58007812 C-110.72026429 5.61536624 -52.68649221 -13.20127551 0 0 Z M-125 53 C-125.53093262 53.43844238 -126.06186523 53.87688477 -126.60888672 54.32861328 C-154.14776958 77.43922244 -170.69811066 113.71240907 -175 149 C-175.11201868 151.66231055 -175.18691578 154.2987456 -175.203125 156.9609375 C-175.20882507 157.70977203 -175.21452515 158.45860657 -175.22039795 159.23013306 C-175.22979745 160.81177381 -175.2363617 162.39343371 -175.24023438 163.97509766 C-175.2498333 166.33403264 -175.28085914 168.69205403 -175.3125 171.05078125 C-175.4117815 185.14534056 -173.46558092 198.57438183 -169.25 212.0625 C-168.86593994 213.30990967 -168.86593994 213.30990967 -168.47412109 214.58251953 C-157.59122763 248.89741748 -134.87995979 278.40314689 -104 297 C-103.01 297.33 -102.02 297.66 -101 298 C-100.99761165 297.17469032 -100.99522329 296.34938065 -100.99276257 295.49906158 C-100.93345699 275.3563961 -100.8578083 255.2138487 -100.76428509 235.07131195 C-100.71944504 225.3302672 -100.68000361 215.58925805 -100.65356445 205.84814453 C-100.63048842 197.35129082 -100.59698441 188.8545509 -100.55129844 180.35778761 C-100.52749492 175.86471375 -100.50868229 171.37175167 -100.50238609 166.87861633 C-100.49627637 162.63666632 -100.47606834 158.39500184 -100.44572449 154.15315819 C-100.43703745 152.608619 -100.43320192 151.06404234 -100.43499184 149.51947975 C-100.45418907 125.27760652 -94.38179246 103.40821122 -77.4375 85.34765625 C-62.49289172 70.9538909 -44.80690806 65.46837005 -24.49829102 65.65283203 C-8.37116204 66.04941154 8.14082064 71.07183275 19.98046875 82.6171875 C25.85290047 89.54597541 30.41318995 96.74819914 33.0625 105.4375 C34.5316699 109.32104001 35.83928408 111.17931582 39.5078125 112.984375 C41.60038721 113.88072788 43.71151191 114.69654256 45.84179688 115.4987793 C56.70606538 119.62009433 63.8828165 127.67061899 69 138 C71.40416042 144.17091622 73.6823158 150.29835034 73 157 C71.47758475 158.9741531 70.5507739 159.87473731 68.09887695 160.43237305 C67.05413208 160.47164917 67.05413208 160.47164917 65.98828125 160.51171875 C65.23095703 160.54716797 64.47363281 160.58261719 63.69335938 160.61914062 C62.90767578 160.64169922 62.12199219 160.66425781 61.3125 160.6875 C60.51521484 160.72166016 59.71792969 160.75582031 58.89648438 160.79101562 C56.93148096 160.87338104 54.96576304 160.93837067 53 161 C52.84144531 161.7734375 52.68289063 162.546875 52.51953125 163.34375 C50.46627399 172.5096719 48.29847545 178.99654202 40.375 184.4375 C32.95514652 189.08440482 24.51409561 188.89685561 16 188 C9.37785304 186.2329932 4.95946421 182.78294632 1.1796875 177.11328125 C-1.74093332 171.88130818 -3.08788792 166.90780849 -4 161 C-5.68029297 160.92652344 -5.68029297 160.92652344 -7.39453125 160.8515625 C-8.86721203 160.77652144 -10.33986707 160.70097418 -11.8125 160.625 C-12.55048828 160.5940625 -13.28847656 160.563125 -14.04882812 160.53125 C-17.81893115 160.32653852 -19.79650741 160.13566173 -23 158 C-22.74341058 143.53768722 -18.49285758 132.2385804 -8.04296875 122.1015625 C-1.7708675 116.77202192 5.39986118 113.95140526 13 111 C10.23405204 101.74471259 4.98116988 96.03070222 -3.27734375 91.19140625 C-14.97448949 86.0728561 -31.62007444 85.84372019 -43.75 89.5625 C-58.34485802 95.62074295 -69.17721749 105.35600697 -75.24885845 120.00534344 C-79.06127594 130.12921899 -79.41444842 139.64320778 -79.34057617 150.31323242 C-79.33972851 152.0389708 -79.34020776 153.76471025 -79.34190369 155.490448 C-79.34275962 160.14470324 -79.32519943 164.79872354 -79.30418181 169.45292449 C-79.28534754 174.32824858 -79.28365927 179.20357886 -79.28010559 184.07893372 C-79.27080488 193.29739526 -79.24621796 202.51574926 -79.21605712 211.73416358 C-79.18245147 222.2348083 -79.16601163 232.73545831 -79.15097082 243.23614347 C-79.11966655 264.82415552 -79.06694467 286.41207097 -79 308 C-77.08975314 308.64699592 -75.17860797 309.29133998 -73.26708984 309.93457031 C-72.2029184 310.29367493 -71.13874695 310.65277954 -70.04232788 311.02276611 C-47.57308719 318.24016814 -20.51302718 317.3040651 2 311 C2.65387695 310.82339844 3.30775391 310.64679688 3.98144531 310.46484375 C20.22597881 305.95942614 35.6622248 298.2625777 49 288 C50.41152344 286.92105469 50.41152344 286.92105469 51.8515625 285.8203125 C81.93078681 262.01112368 101.17232999 226.78572007 106.12084961 188.71777344 C106.5440643 184.81655524 106.81275467 180.91918262 107 177 C107.03851074 176.20416504 107.07702148 175.40833008 107.11669922 174.58837891 C108.79971783 132.6803782 94.18279534 93.42880374 66.25 62.375 C56.64112993 51.99661194 45.26976075 43.9497893 33 37 C32.09507812 36.47921875 31.19015625 35.9584375 30.2578125 35.421875 C16.03807281 27.76819074 -0.0624409 23.23340234 -16 21 C-17.38445312 20.80470703 -17.38445312 20.80470703 -18.796875 20.60546875 C-21.53567162 20.29424186 -24.24609896 20.1223956 -27 20 C-28.26457031 19.93554688 -29.52914062 19.87109375 -30.83203125 19.8046875 C-65.5489763 18.60796413 -98.44028958 31.06130773 -125 53 Z " fill="#1F2020" transform="translate(206,13)"/>
<path d="M0 0 C10.89 0 21.78 0 33 0 C37.85671966 6.67798953 42.60937926 13.28463587 47.10546875 20.1875 C48.25126876 21.93491768 49.39710363 23.68231251 50.54296875 25.4296875 C51.43314697 26.7904541 51.43314697 26.7904541 52.34130859 28.17871094 C64.40937684 46.62073641 76.64251623 64.94548314 89.01635742 83.18359375 C96.40627913 94.08643043 103.65418829 105.07241377 110.79382324 116.14086914 C111.84999604 117.7687926 112.92359061 119.38538592 114 121 C115.6248104 119.3751896 115.14182865 117.56947457 115.15821838 115.32408142 C115.1680072 114.31300827 115.17779602 113.30193512 115.18788147 112.26022339 C115.19363693 111.14173004 115.1993924 110.02323669 115.20532227 108.87084961 C115.21522186 107.70027512 115.22512146 106.52970062 115.23532104 105.32365417 C115.26157055 102.10482071 115.28340702 98.88599275 115.30332303 95.66711497 C115.32514571 92.30649656 115.35255253 88.94592393 115.37937927 85.58534241 C115.4293566 79.2176098 115.47427665 72.84985185 115.51740164 66.48206955 C115.56673104 59.2342702 115.62166505 51.98651676 115.67708123 44.73876178 C115.79097862 29.82588243 115.89706069 14.91295978 116 0 C126.89 0 137.78 0 149 0 C149 59.07 149 118.14 149 179 C138.11 179 127.22 179 116 179 C105.56081877 166.86797858 105.56081877 166.86797858 102.6875 160.8046875 C97.76145959 151.11319444 91.71107814 142.22711001 85.65344238 133.21618652 C82.48341588 128.4844244 79.36228251 123.72059653 76.234375 118.9609375 C69.03229098 108.02859907 61.77864421 97.13097983 54.49121094 86.25537109 C47.56151207 75.89704558 40.79433701 65.45282617 34 55 C33.67 95.59 33.34 136.18 33 178 C22.11 178 11.22 178 0 178 C0 119.26 0 60.52 0 0 Z " fill="#202020" transform="translate(952,103)"/>
<path d="M0 0 C1.03125 0.70125 2.0625 1.4025 3.125 2.125 C12.0673583 10.09860282 16.41989788 22.4237949 18 34 C18.13461604 36.98170227 18.12661008 39.95857163 18.11352539 42.94287109 C18.11367142 43.8215686 18.11381744 44.70026611 18.1139679 45.60559082 C18.11327413 48.49489861 18.1055069 51.38414104 18.09765625 54.2734375 C18.09579017 56.28268397 18.09436716 58.29193089 18.09336853 60.30117798 C18.08955836 65.57832098 18.0797409 70.85543627 18.06866455 76.13256836 C18.05841816 81.52196884 18.053864 86.91137382 18.04882812 92.30078125 C18.03811726 102.86720161 18.02053263 113.43359416 18 124 C7.44 124 -3.12 124 -14 124 C-14.00410889 121.44717285 -14.00821777 118.8943457 -14.01245117 116.26416016 C-14.02969652 107.80231143 -14.07427802 99.34076277 -14.13209057 90.87909889 C-14.16629053 85.75186002 -14.19145967 80.6249169 -14.19555664 75.49755859 C-14.19985458 70.54355581 -14.22844109 65.59021944 -14.27343178 60.63642502 C-14.28635907 58.7523729 -14.29073148 56.86824084 -14.28615379 54.98414993 C-14.22566119 39.0118403 -14.22566119 39.0118403 -22.25 25.5625 C-29.78088858 21.28358603 -37.27967479 19.5699187 -45.765625 21.69140625 C-53.21199681 24.12266699 -59.38158189 27.38618811 -63.15332031 34.50366211 C-66.42500507 42.24138967 -65.60559494 51.00860602 -65.609375 59.25390625 C-65.62437206 61.12435833 -65.64110239 62.99479724 -65.65948486 64.86521912 C-65.70299939 69.76254924 -65.7231221 74.65970077 -65.73822021 79.55718994 C-65.75784882 84.56492605 -65.79981226 89.5724709 -65.83984375 94.58007812 C-65.91497375 104.38669191 -65.96330228 114.19316701 -66 124 C-76.56 124 -87.12 124 -98 124 C-98.0093457 121.53805176 -98.01869141 119.07610352 -98.02832031 116.53955078 C-98.06218842 108.37706794 -98.11779178 100.21483531 -98.18390274 92.05255318 C-98.2232998 87.10696267 -98.25552629 82.16154814 -98.27099609 77.21582031 C-98.286214 72.43693975 -98.32075012 67.65854325 -98.36830902 62.879879 C-98.38307005 61.06281635 -98.39103797 59.24568457 -98.39188385 57.42856216 C-98.40245059 46.10440599 -98.94354507 37.44260488 -105.125 27.625 C-110.21130785 22.98097979 -116.0629644 20.82840138 -122.9375 20.5 C-131.26029523 20.88009616 -139.29687797 23.87957635 -145 30 C-148.80132832 36.2537982 -150.15042744 41.66014595 -150.20532227 48.9597168 C-150.21522186 49.76970123 -150.22512146 50.57968567 -150.23532104 51.41421509 C-150.26691809 54.09251987 -150.2916864 56.77084239 -150.31640625 59.44921875 C-150.33697733 61.30581626 -150.35797384 63.16240911 -150.37937927 65.01899719 C-150.43458407 69.90650656 -150.4840004 74.79405808 -150.53222656 79.68164062 C-150.58245318 84.66865798 -150.6381332 89.65561408 -150.69335938 94.64257812 C-150.80092151 104.42833505 -150.90186692 114.21414397 -151 124 C-161.56 124 -172.12 124 -183 124 C-183 81.76 -183 39.52 -183 -4 C-172.77 -4 -162.54 -4 -152 -4 C-151.505 2.93 -151.505 2.93 -151 10 C-149.88625 8.80375 -148.7725 7.6075 -147.625 6.375 C-138.48631604 -2.71541626 -127.78926158 -7.30351115 -114.90698242 -7.46850586 C-113.98892822 -7.45827393 -113.07087402 -7.44804199 -112.125 -7.4375 C-111.16118408 -7.42920166 -110.19736816 -7.42090332 -109.2043457 -7.41235352 C-96.11632858 -7.10228414 -87.03968036 -3.20915415 -77.890625 6.16015625 C-73 11.549625 -73 11.549625 -73 14 C-72.28972656 13.278125 -71.57945312 12.55625 -70.84765625 11.8125 C-52.05615157 -6.93280147 -24.00330743 -16.53339848 0 0 Z " fill="#1F1F1F" transform="translate(850,157)"/>
<path d="M0 0 C11.59083146 10.75149539 17.43681336 24.62088019 20 40 C20 47.26 20 54.52 20 62 C-10.69 62 -41.38 62 -73 62 C-69.72909797 75.08360812 -67.03574734 83.36119364 -56 91 C-47.06177869 95.95791963 -36.76319489 96.50669423 -26.87890625 94.3046875 C-18.66370451 91.59287333 -12.01739057 87.10796998 -7 80 C-2.27896188 81.63173745 1.66519664 84.15246401 5.8125 86.875 C6.50537109 87.30941406 7.19824219 87.74382812 7.91210938 88.19140625 C9.89453125 89.4921875 9.89453125 89.4921875 13 92 C13 98.30061893 9.22814547 101.6531959 5.01953125 106.0859375 C-7.17837866 117.6839502 -22.2682047 121.59499949 -38.75 121.5 C-40.44854126 121.49359497 -40.44854126 121.49359497 -42.18139648 121.48706055 C-54.8504959 121.23142025 -66.41739451 118.2480864 -77 111 C-78.21042969 110.18982422 -78.21042969 110.18982422 -79.4453125 109.36328125 C-92.98004156 99.49162107 -100.36472647 84.14449868 -103.49609375 67.96875 C-106.66975023 46.16175594 -102.15936494 24.84928536 -89 7 C-67.02003198 -20.12318349 -26.40411489 -19.76402683 0 0 Z " fill="#202020" transform="translate(1225,163)"/>
<path d="M0 0 C10.56 0 21.12 0 32 0 C32 42.57 32 85.14 32 129 C21.77 129 11.54 129 1 129 C0.505 121.575 0.505 121.575 0 114 C-0.969375 115.19625 -1.93875 116.3925 -2.9375 117.625 C-10.47469302 126.14007235 -19.91797181 131.18699231 -31.36181641 132.21142578 C-45.5933318 132.97691504 -58.29987917 131.88198542 -70 123 C-79.07556385 114.83199253 -84.22766841 103.85740637 -85.18054581 91.69566154 C-85.24341459 89.27520554 -85.24784429 86.86233952 -85.22705078 84.44116211 C-85.22734283 83.53276581 -85.22763489 82.62436951 -85.22793579 81.68844604 C-85.2265544 78.71797777 -85.21104983 75.74776763 -85.1953125 72.77734375 C-85.19157813 70.70512529 -85.18873316 68.63290506 -85.18673706 66.5606842 C-85.17913401 61.13065641 -85.15951433 55.70073714 -85.1373291 50.27075195 C-85.11679871 44.72022977 -85.10772001 39.1696899 -85.09765625 33.61914062 C-85.0762651 22.74603862 -85.04111031 11.87304535 -85 1 C-74.77 1 -64.54 1 -54 1 C-53.9906543 3.52253418 -53.98130859 6.04506836 -53.97167969 8.64404297 C-53.93781614 17.00609198 -53.88221524 25.36789665 -53.81609726 33.72974968 C-53.7766952 38.79640823 -53.74447112 43.86289487 -53.72900391 48.9296875 C-53.71378936 53.82527203 -53.679259 58.72038371 -53.63169098 63.61575699 C-53.61692653 65.47747803 -53.60896184 67.3392666 -53.60811615 69.20104599 C-53.96488165 84.28123459 -53.96488165 84.28123459 -47.69476318 97.58737183 C-41.16517061 103.68926243 -33.70044375 104.51755566 -25.18359375 104.28125 C-17.37567047 103.59147027 -11.17630326 101.0233347 -6 95 C-2.11593098 88.76660049 -0.84897377 83.25664755 -0.79467773 75.94848633 C-0.78477814 75.12874832 -0.77487854 74.30901031 -0.76467896 73.46443176 C-0.73307991 70.75366102 -0.7083128 68.04287275 -0.68359375 65.33203125 C-0.66302285 63.45301354 -0.64202634 61.57400045 -0.62062073 59.69499207 C-0.56541414 54.7482985 -0.5159986 49.80156326 -0.46777344 44.85479736 C-0.41754813 39.80745738 -0.36186743 34.76017793 -0.30664062 29.71289062 C-0.1990763 19.80864353 -0.09813155 9.90434505 0 0 Z " fill="#1F1F1F" transform="translate(609,152)"/>
<path d="M0 0 C10.56 0 21.12 0 32 0 C32 49.17 32 98.34 32 149 C57.74 149 83.48 149 110 149 C110 158.57 110 168.14 110 178 C73.7 178 37.4 178 0 178 C0 119.26 0 60.52 0 0 Z " fill="#212121" transform="translate(400,103)"/>
<path d="M0 0 C0 10.89 0 21.78 0 33 C10.89 33 21.78 33 33 33 C33 41.58 33 50.16 33 59 C22.11 59 11.22 59 0 59 C0.09090276 70.5597559 0.09090276 70.5597559 0.20898438 82.11914062 C0.26320667 86.83729002 0.31432036 91.55532322 0.34643555 96.27368164 C0.37254327 100.07994894 0.41299744 103.8858236 0.46318626 107.69184685 C0.47980474 109.14016759 0.49135018 110.58855616 0.49761391 112.03695869 C0.34998871 122.45881507 0.34998871 122.45881507 4 132 C7.33803691 134.22535794 8.62819711 134.28978404 12.54296875 134.4140625 C13.51000732 134.44967285 14.4770459 134.4852832 15.47338867 134.52197266 C16.69904541 134.55597168 17.92470215 134.5899707 19.1875 134.625 C23.085625 134.74875 26.98375 134.8725 31 135 C31 143.25 31 151.5 31 160 C22.46706807 162.55987958 17.07540981 163.49449453 8.5625 163.4375 C7.50740234 163.45748047 6.45230469 163.47746094 5.36523438 163.49804688 C-5.2981856 163.49148477 -15.27260701 160.65975716 -23 153 C-28.77852707 145.83153769 -31.31991449 139.3284885 -31.22705078 130.06689453 C-31.22734283 129.2954863 -31.22763489 128.52407806 -31.22793579 127.72929382 C-31.22655011 125.1970162 -31.21102512 122.66503828 -31.1953125 120.1328125 C-31.19157966 118.37019003 -31.18873396 116.60756548 -31.18673706 114.84494019 C-31.17912198 110.21877251 -31.15949182 105.59273157 -31.1373291 100.96661377 C-31.11682481 96.24078078 -31.10772556 91.5149272 -31.09765625 86.7890625 C-31.07624384 77.52597719 -31.04107909 68.26301899 -31 59 C-36.94 59 -42.88 59 -49 59 C-49 50.42 -49 41.84 -49 33 C-43.06 33 -37.12 33 -31 33 C-31 22.77 -31 12.54 -31 2 C-26.111875 1.505 -26.111875 1.505 -21.125 1 C-20.11969238 0.89558594 -19.11438477 0.79117188 -18.07861328 0.68359375 C-17.25087402 0.60238281 -16.42313477 0.52117187 -15.5703125 0.4375 C-14.74289551 0.35371094 -13.91547852 0.26992187 -13.06298828 0.18359375 C-8.71603055 -0.07696039 -4.35475946 0 0 0 Z " fill="#1F1F1F" transform="translate(1301,120)"/>
<path d="M0 0 C10.89 0 21.78 0 33 0 C33 42.57 33 85.14 33 129 C22.11 129 11.22 129 0 129 C0 86.43 0 43.86 0 0 Z " fill="#212121" transform="translate(893,153)"/>
<path d="M0 0 C7.21886176 4.94471167 11.98596257 10.39917349 14 19 C14.495 22.96 14.495 22.96 15 27 C-5.79 27 -26.58 27 -48 27 C-45.37819036 15.20185664 -41.9776881 8.0608879 -32 1 C-22.35098738 -4.61540898 -10.03713417 -5.01856709 0 0 Z " fill="#F9F9F9" transform="translate(1200,177)"/>
<path d="M0 0 C4.74289464 2.81254526 7.79168409 5.70708353 9.55859375 11.0078125 C10.29795528 17.54588091 10.144896 22.92707452 6.16015625 28.34765625 C1.83392433 32.83216495 -2.79927031 34.23853507 -8.94140625 34.5703125 C-14.52205571 34.36103815 -18.23844815 32.62214993 -22.44140625 29.0078125 C-26.64060006 24.40224509 -26.79808324 19.80200896 -26.7109375 13.796875 C-26.22589286 8.77771747 -24.43264427 5.88895804 -20.81640625 2.47265625 C-14.74236881 -2.07021759 -7.04023353 -2.86115091 0 0 Z " fill="#1F1F1F" transform="translate(917.44140625,101.9921875)"/>
<path d="M0 0 C16.5 0 33 0 50 0 C50 6.99887412 48.89436858 10.85314395 44.1640625 15.99609375 C37.45588158 22.1773869 31.36386566 23.53991944 22.32421875 23.375 C15.544943 22.61024034 10.20348708 19.64698619 5.5625 14.6875 C2.2219729 10.36279494 0 5.53557148 0 0 Z " fill="#F7F7F7" transform="translate(205,174)"/>
<path d="M0 0 C10.89 0 21.78 0 33 0 C33 42.57 33 85.14 33 129 C22.11 129 11.22 129 0 129 C0 86.43 0 43.86 0 0 Z M3 2 C3 42.92 3 83.84 3 126 C11.91 126 20.82 126 30 126 C30 85.08 30 44.16 30 2 C21.09 2 12.18 2 3 2 Z " fill="#313131" transform="translate(893,153)"/>
<path d="M0 0 C10.56 0 21.12 0 32 0 C32 49.5 32 99 32 150 C31.67 150 31.34 150 31 150 C31 100.83 31 51.66 31 1 C21.1 1 11.2 1 1 1 C1 59.08 1 117.16 1 177 C36.31 177 71.62 177 108 177 C108 168.42 108 159.84 108 151 C83.25 151 58.5 151 33 151 C33 150.34 33 149.68 33 149 C58.41 149 83.82 149 110 149 C110 158.57 110 168.14 110 178 C73.7 178 37.4 178 0 178 C0 119.26 0 60.52 0 0 Z " fill="#030303" transform="translate(400,103)"/>
<path d="M0 0 C10.89 0 21.78 0 33 0 C33 59.07 33 118.14 33 179 C22.11 179 11.22 179 0 179 C0 178.01 0 177.02 0 176 C10.23 176.33 20.46 176.66 31 177 C31 118.92 31 60.84 31 1 C21.1 1 11.2 1 1 1 C1 40.27 1 79.54 1 120 C0.67 120 0.34 120 0 120 C0 80.4 0 40.8 0 0 Z " fill="#2C2C2C" transform="translate(1068,103)"/>
<path d="M0 0 C10.56 0 21.12 0 32 0 C32 0.66 32 1.32 32 2 C29.23382437 3.38308781 26.98982 3.11210196 23.8984375 3.09765625 C22.68671875 3.09443359 21.475 3.09121094 20.2265625 3.08789062 C18.95554687 3.07951172 17.68453125 3.07113281 16.375 3.0625 C15.09625 3.05798828 13.8175 3.05347656 12.5 3.04882812 C9.33328708 3.03701203 6.16666644 3.02053815 3 3 C3.00222061 3.9683075 3.00444122 4.93661499 3.00672913 5.93426514 C3.02699565 15.05702672 3.0419891 24.17978373 3.05181217 33.30256271 C3.05703205 37.99273364 3.06411352 42.6828864 3.07543945 47.37304688 C3.08630004 51.8987979 3.09228359 56.42453144 3.09487724 60.95029449 C3.09672576 62.67746506 3.1003354 64.40463466 3.10573006 66.13179779 C3.11298254 68.54980034 3.11398916 70.96773053 3.11352539 73.38574219 C3.11712067 74.10071869 3.12071594 74.81569519 3.12442017 75.55233765 C3.11757486 78.84786372 3.01912878 81.84875525 2 85 C1.34 85 0.68 85 0 85 C-0.33 85.99 -0.66 86.98 -1 88 C-0.67 58.96 -0.34 29.92 0 0 Z " fill="#333333" transform="translate(609,152)"/>
<path d="M0 0 C5.76925446 5.76925446 5.32315761 14.96827539 5.34817982 22.62084007 C5.33965354 25.09374154 5.31658207 27.56626294 5.29296875 30.0390625 C5.28736373 31.77354564 5.28309792 33.50803358 5.28010559 35.24252319 C5.26872805 39.77664629 5.23932311 44.31047465 5.20599365 48.84448242 C5.17513869 53.48352066 5.16156749 58.12260717 5.14648438 62.76171875 C5.11444556 71.84129523 5.06173678 80.92057684 5 90 C13.58 90 22.16 90 31 90 C31 88.35 31 86.7 31 85 C31.33 85 31.66 85 32 85 C32 86.98 32 88.96 32 91 C22.1 91.33 12.2 91.66 2 92 C1.97494385 89.42622559 1.9498877 86.85245117 1.92407227 84.20068359 C1.84054576 75.69102636 1.75186666 67.18142842 1.66066074 58.6718502 C1.60552801 53.51318831 1.55212362 48.35452065 1.50268555 43.19580078 C1.45489945 38.21612355 1.40255185 33.23651315 1.34705925 28.25691605 C1.32670013 26.35837089 1.30797664 24.45980746 1.29092598 22.56122971 C1.26673888 19.89931395 1.2367045 17.23752292 1.20532227 14.57568359 C1.1995668 13.79309174 1.19381134 13.01049988 1.18788147 12.20419312 C1.13217263 8.03909728 0.80817943 4.08765093 0 0 Z " fill="#272828" transform="translate(834,189)"/>
<path d="M0 0 C1.13902983 4.07551391 1.09226705 7.96367517 1.02172852 12.16503906 C1.01212097 12.9849231 1.00251343 13.80480713 0.99261475 14.64953613 C0.95967812 17.35498791 0.91932548 20.06027552 0.87890625 22.765625 C0.85459992 24.64320296 0.83075662 26.52078697 0.80735779 28.39837646 C0.74456794 33.33694351 0.67548681 38.27540332 0.60510254 43.21386719 C0.53437306 48.25450767 0.46958371 53.2952241 0.40429688 58.3359375 C0.27535022 68.22404409 0.13920935 78.11203256 0 88 C-14.85 87.505 -14.85 87.505 -30 87 C-30 86.67 -30 86.34 -30 86 C-21.09 86 -12.18 86 -3 86 C-3.01571045 83.67904297 -3.0314209 81.35808594 -3.04760742 78.96679688 C-3.09742227 71.27946865 -3.13049642 63.59213311 -3.15543652 55.90468597 C-3.1710608 51.24594043 -3.19223966 46.58736094 -3.22631836 41.92871094 C-3.25902763 37.42886229 -3.27687735 32.92917288 -3.28463173 28.42921448 C-3.29015453 26.71649165 -3.3009391 25.00377707 -3.31719017 23.29112244 C-3.33911868 20.88334642 -3.34196057 18.47621993 -3.34057617 16.06835938 C-3.351362 15.36776398 -3.36214783 14.66716858 -3.3732605 13.94534302 C-3.34060029 8.66061057 -2.02864362 4.79577891 0 0 Z " fill="#282828" transform="translate(784,193)"/>
<path d="M0 0 C0.99 0.495 0.99 0.495 2 1 C5.59748668 1.23245299 9.1884991 1.39500287 12.79101562 1.51757812 C16.6486236 1.69367909 18.72287807 1.81525205 22 4 C22.9921875 6.390625 22.9921875 6.390625 23.875 9.25 C26.29794723 16.17528947 29.17278804 20.22247209 35.6875 23.75 C40.6541087 26.07272978 45.59095789 27.22892378 51 28 C51 28.33 51 28.66 51 29 C48.94921875 29.22786458 46.8984375 29.45572917 44.84765625 29.68359375 C42.98859771 29.81886614 42.98859771 29.81886614 42 31 C37.71133848 31.75051577 35.098694 30.76305275 31.5 28.5625 C25.18799689 24.06000874 20.69361072 17.62124822 19 10 C18.97540161 8.00015128 18.97234013 5.99980872 19 4 C17.87980469 4.02320313 16.75960937 4.04640625 15.60546875 4.0703125 C14.13281916 4.08907237 12.66016237 4.10727234 11.1875 4.125 C10.44951172 4.14175781 9.71152344 4.15851563 8.95117188 4.17578125 C5.08753574 4.21074628 3.29096332 4.19397555 0 2 C0 1.34 0 0.68 0 0 Z " fill="#0C0C0C" transform="translate(183,170)"/>
<path d="M0 0 C5.94 0 11.88 0 18 0 C18 0.33 18 0.66 18 1 C13.05 1 8.1 1 3 1 C3 7.93 3 14.86 3 22 C7.95 22 12.9 22 18 22 C18 22.99 18 23.98 18 25 C12.06 25 6.12 25 0 25 C0 16.75 0 8.5 0 0 Z " fill="#282828" transform="translate(1252,154)"/>
<path d="M0 0 C2.04106404 -0.00218946 4.08158992 -0.02036779 6.12255859 -0.03930664 C8.05035156 -0.04220703 8.05035156 -0.04220703 10.01708984 -0.04516602 C11.19722656 -0.0492749 12.37736328 -0.05338379 13.59326172 -0.05761719 C16.54833984 0.18530273 16.54833984 0.18530273 19.54833984 2.18530273 C13.15127203 3.3260067 6.84762526 3.36888796 0.36083984 3.37280273 C-1.25854492 3.39117187 -1.25854492 3.39117187 -2.91064453 3.40991211 C-3.94898438 3.4118457 -4.98732422 3.4137793 -6.05712891 3.41577148 C-7.4670813 3.42193481 -7.4670813 3.42193481 -8.90551758 3.42822266 C-11.55060657 3.17586255 -13.18316065 2.52988246 -15.45166016 1.18530273 C-10.45271178 -0.48101339 -5.23443861 -0.00063081 0 0 Z " fill="#282828" transform="translate(170.45166015625,347.814697265625)"/>
<path d="M0 0 C1.485 0.99 1.485 0.99 3 2 C3.41650391 4.48339844 3.41650391 4.48339844 3.4765625 7.609375 C3.50693604 8.75108154 3.53730957 9.89278809 3.56860352 11.0690918 C3.58721436 12.2837915 3.6058252 13.49849121 3.625 14.75 C3.68705503 17.20968011 3.75084119 19.6693172 3.81640625 22.12890625 C3.84492676 23.31371582 3.87344727 24.49852539 3.90283203 25.71923828 C4.07389047 31.49482439 4.49993103 37.24388701 5 43 C2.74258432 39.32579624 2.39677644 35.50988729 1.9375 31.3125 C1.79878244 26.78716637 1.79878244 26.78716637 0 23 C-0.08713831 21.29227642 -0.10700007 19.58101351 -0.09765625 17.87109375 C-0.09443359 16.83662109 -0.09121094 15.80214844 -0.08789062 14.73632812 C-0.07951172 13.64771484 -0.07113281 12.55910156 -0.0625 11.4375 C-0.05798828 10.34501953 -0.05347656 9.25253906 -0.04882812 8.12695312 C-0.03699826 5.41791505 -0.02051543 2.70898401 0 0 Z " fill="#2F2F2F" transform="translate(28,169)"/>
<path d="M0 0 C0.37125 0.515625 0.7425 1.03125 1.125 1.5625 C1.74375 2.366875 2.3625 3.17125 3 4 C3.37898437 4.54398438 3.75796875 5.08796875 4.1484375 5.6484375 C8.38896316 11.26161886 13.53361785 13.50319408 20 16 C19 18 19 18 16.71875 18.76953125 C12.53646067 19.1240644 10.48072465 17.38497696 7.16015625 15.0234375 C3.57505477 11.66524118 1.58036335 7.61402566 0 3 C0 2.01 0 1.02 0 0 Z " fill="#1D1D1D" transform="translate(205,182)"/>
<path d="M0 0 C0.66 0.33 1.32 0.66 2 1 C0 4 -2 7 -4 10 C-3.01 9.67 -2.02 9.34 -1 9 C-2.50139512 13.20390632 -5.17275043 14.89110738 -9 17 C-9.99 16.67 -10.98 16.34 -12 16 C-10.76280008 11.32613363 -8.29839485 9.39594877 -4.6875 6.4921875 C-2.55330826 4.60500869 -1.26793186 2.53586373 0 0 Z " fill="#121212" transform="translate(253,183)"/>
<path d="M0 0 C0.37125 0.515625 0.7425 1.03125 1.125 1.5625 C2.71097921 3.62427298 4.32823205 5.63301779 6 7.625 C6.495 8.21539062 6.99 8.80578125 7.5 9.4140625 C9.11020666 11.23476995 9.11020666 11.23476995 12 13 C12 13.66 12 14.32 12 15 C7.09609808 13.84614072 5.01466154 10.96775432 2.2265625 7.04296875 C0.82901035 4.71519877 0.16971716 2.7154746 0 0 Z " fill="#242425" transform="translate(205,182)"/>
<path d="M0 0 C-0.53109375 0.31453125 -1.0621875 0.6290625 -1.609375 0.953125 C-4.7838813 2.87636604 -7.61417232 4.61417232 -10.25 7.25 C-12.16907351 9.16907351 -13.34968309 9.6213833 -16 10 C-14.49322669 5.97896591 -12.13434234 4.4406542 -8.5625 2.1875 C-7.11037109 1.24970703 -7.11037109 1.24970703 -5.62890625 0.29296875 C-3 -1 -3 -1 0 0 Z " fill="#141414" transform="translate(93,33)"/>
<path d="M0 0 C0.33 0 0.66 0 1 0 C1.33 4.29 1.66 8.58 2 13 C2.33 13 2.66 13 3 13 C3.1875 15.375 3.1875 15.375 3 18 C2.01 18.66 1.02 19.32 0 20 C0 13.4 0 6.8 0 0 Z " fill="#DADBDA" transform="translate(334,173)"/>
<path d="M0 0 C0.66 0 1.32 0 2 0 C1.40236676 4.18343269 0.71426729 8.12034244 -1 12 C-3.125 12.875 -3.125 12.875 -5 13 C-5 9.07620945 -3.39593058 7.99491322 -1 5 C-1 4.01 -1 3.02 -1 2 C-0.67 1.34 -0.34 0.68 0 0 Z " fill="#272728" transform="translate(254,181)"/>
<path d="M0 0 C0.99 0.33 1.98 0.66 3 1 C3.08153933 2.58246707 3.13943557 4.16616273 3.1875 5.75 C3.23970703 7.07257813 3.23970703 7.07257813 3.29296875 8.421875 C3 11 3 11 0 15 C0 10.05 0 5.1 0 0 Z " fill="#2D2C2D" transform="translate(865,190)"/>
<path d="M0 0 C0 0.99 0 1.98 0 3 C-0.99 3 -1.98 3 -3 3 C-3.33 3.66 -3.66 4.32 -4 5 C-4.53625 4.855625 -5.0725 4.71125 -5.625 4.5625 C-8.39915827 3.90546252 -11.18525388 3.44780052 -14 3 C-14 2.67 -14 2.34 -14 2 C-12.04200486 1.66468585 -10.08359226 1.33180857 -8.125 1 C-6.48917969 0.7215625 -6.48917969 0.7215625 -4.8203125 0.4375 C-2 0 -2 0 0 0 Z " fill="#262727" transform="translate(242,195)"/>
<path d="M0 0 C5.94 0 11.88 0 18 0 C18 0.33 18 0.66 18 1 C16.85660156 1.04898438 15.71320313 1.09796875 14.53515625 1.1484375 C13.04424527 1.22345189 11.55336108 1.29900028 10.0625 1.375 C8.93038086 1.42140625 8.93038086 1.42140625 7.77539062 1.46875 C5.84492605 1.5726315 3.92057919 1.77895614 2 2 C1.67 2.66 1.34 3.32 1 4 C0.34 4 -0.32 4 -1 4 C-0.67 2.68 -0.34 1.36 0 0 Z " fill="#F3F4F3" transform="translate(207,176)"/>
<path d="M0 0 C0 0.66 0 1.32 0 2 C-6.625 2.25 -6.625 2.25 -10 0 C-6.7169902 -1.6415049 -3.57454967 -0.51888624 0 0 Z " fill="#171717" transform="translate(203,34)"/>
<path d="M0 0 C0.99 0 1.98 0 3 0 C3 3.3 3 6.6 3 10 C-0.16130459 5.78492722 -0.3367697 4.93928888 0 0 Z " fill="#292A2A" transform="translate(312,164)"/>
<path d="M0 0 C0.99 0.33 1.98 0.66 3 1 C2.67 3.97 2.34 6.94 2 10 C-0.4294516 6.3558226 -0.16179575 4.28758728 0 0 Z " fill="#2F2E2F" transform="translate(1242,202)"/>
</svg>
